<?xml version="1.0" encoding="UTF-8" standalone="no"?>


<!-- Uploaded to: SVG Repo, www.svgrepo.com, Generator: SVG Repo Mixer Tools -->
<svg 
   xmlns:dc="http://purl.org/dc/elements/1.1/"
   xmlns:cc="http://creativecommons.org/ns#"
   xmlns:rdf="http://www.w3.org/1999/02/22-rdf-syntax-ns#"
   xmlns:svg="http://www.w3.org/2000/svg"
   xmlns="http://www.w3.org/2000/svg"
   xmlns:sodipodi="http://sodipodi.sourceforge.net/DTD/sodipodi-0.dtd"
   xmlns:inkscape="http://www.inkscape.org/namespaces/inkscape"
   width="40"
   height="40"
   viewBox="0 0 30 30"
   version="1.1"
   id="svg822"
   inkscape:version="0.92.4 (f8dce91, 2019-08-02)"
   sodipodi:docname="code.svg">
  <defs
     id="defs816">
    <inkscape:path-effect
       only_selected="false"
       apply_with_weight="true"
       apply_no_weight="true"
       helper_size="0"
       steps="2"
       weight="33.333333"
       is_visible="true"
       id="path-effect1025"
       effect="bspline" />
    <inkscape:path-effect
       only_selected="false"
       apply_with_weight="true"
       apply_no_weight="true"
       helper_size="0"
       steps="2"
       weight="33.333333"
       is_visible="true"
       id="path-effect1021"
       effect="bspline" />
  </defs>
  <sodipodi:namedview
     id="base"
     pagecolor="#ffffff"
     bordercolor="#666666"
     borderopacity="1.0"
     inkscape:pageopacity="0.0"
     inkscape:pageshadow="2"
     inkscape:zoom="8.1038938"
     inkscape:cx="17.678805"
     inkscape:cy="22.979448"
     inkscape:document-units="px"
     inkscape:current-layer="layer1"
     showgrid="true"
     units="px"
     inkscape:window-width="1366"
     inkscape:window-height="713"
     inkscape:window-x="0"
     inkscape:window-y="0"
     inkscape:window-maximized="1"
     showguides="false"
     inkscape:guide-bbox="true">
    <sodipodi:guide
       position="21.126168,22.794393"
       orientation="1,0"
       id="guide1575"
       inkscape:locked="false" />
    <sodipodi:guide
       position="22.682243,23.285047"
       orientation="1,0"
       id="guide1635"
       inkscape:locked="false" />
    <sodipodi:guide
       position="22.682243,7.6455921"
       orientation="0,1"
       id="guide1639"
       inkscape:locked="false" />
    <sodipodi:guide
       position="18.859863,18.859863"
       orientation="1,0"
       id="guide1242"
       inkscape:locked="false" />
    <inkscape:grid
       type="xygrid"
       id="grid1103" />
  </sodipodi:namedview>
  <metadata
     id="metadata819">
    <rdf:RDF>
      <cc:Work
         rdf:about="">
        <dc:format>image/svg+xml</dc:format>
        <dc:type
           rdf:resource="http://purl.org/dc/dcmitype/StillImage" />
        <dc:title>

</dc:title>
      </cc:Work>
    </rdf:RDF>
  </metadata>
  <g
     inkscape:label="Layer 1"
     inkscape:groupmode="layer"
     id="layer1"
     transform="translate(0,-289.0625)">
    <g
       id="layer1-3"
       inkscape:label="Layer 1"
       style="fill:rgb(234,179,8);stroke-width:1.41176474"
       transform="matrix(0.70833333,0,0,0.70833333,4.3750001,88.684897)" />
    <g
       aria-label="{}"
       style="font-style:normal;font-weight:normal;font-size:24.25199318px;line-height:1.25;font-family:sans-serif;letter-spacing:0px;word-spacing:0px;fill:rgb(234,179,8);fill-opacity:1;stroke:none;stroke-width:1"
       id="text892">
      <path
         style="font-style:normal;font-variant:normal;font-weight:bold;font-stretch:normal;font-family:'Fira Code';-inkscape-font-specification:'Fira Code Bold';stroke-width:1.64934897"
         d="M 11.779297 3.1171875 C 7.3169299 3.1171875 5.618642 4.3052456 5.9824219 7.6035156 L 6.3476562 11.070312 C 6.5416723 12.889212 5.0614194 13.447266 3 13.447266 L 3 16.552734 C 5.0856714 16.552734 6.5416723 17.110797 6.3476562 18.929688 L 5.9824219 22.421875 C 5.642894 25.671645 7.3169299 26.882812 11.779297 26.882812 L 11.779297 24.214844 C 10.299925 24.214844 9.4021776 23.9001 9.5234375 22.6875 L 9.8867188 19.097656 C 10.177743 16.357176 8.7238695 15.38803 6.1289062 15 C 8.5783575 14.63622 10.177743 13.618564 9.8867188 10.902344 L 9.5234375 7.3125 C 9.4021776 6.0999 10.275673 5.7851562 11.779297 5.7851562 L 11.779297 3.1171875 z M 18.220703 3.1171875 L 18.220703 5.7851562 C 19.700075 5.7851562 20.597823 6.0999 20.476562 7.3125 L 20.113281 10.902344 C 19.822257 13.642814 21.30152 14.61197 23.896484 15 C 21.42278 15.36378 19.822257 16.381436 20.113281 19.097656 L 20.476562 22.6875 C 20.597822 23.9001 19.724327 24.214844 18.220703 24.214844 L 18.220703 26.882812 C 22.68307 26.882812 24.381358 25.694754 24.017578 22.396484 L 23.652344 18.929688 C 23.458328 17.110798 24.962832 16.552734 27 16.552734 L 27 13.447266 C 24.93858 13.447266 23.458328 12.889212 23.652344 11.070312 L 24.017578 7.578125 C 24.357106 4.328365 22.68307 3.1171875 18.220703 3.1171875 z "
         transform="translate(0,289.0625)"
         id="path894" />
    </g>
  </g>
</svg>